<?xml version="1.0" standalone="no"?>
<!DOCTYPE svg PUBLIC "-//W3C//DTD SVG 20010904//EN"
 "http://www.w3.org/TR/2001/REC-SVG-20010904/DTD/svg10.dtd">
<svg version="1.0" xmlns="http://www.w3.org/2000/svg"
 width="512.000000pt" height="512.000000pt" viewBox="0 0 512.000000 512.000000"
 preserveAspectRatio="xMidYMid meet">
<metadata>
Created by potrace 1.14, written by Peter Selinger 2001-2017
</metadata>
<g transform="translate(0.000000,512.000000) scale(0.100000,-0.100000)"
fill="#000000" stroke="none">
<path d="M1950 5097 c0 -12 29 -355 64 -762 l63 -740 88 -217 87 -217 -308
-429 -309 -430 -3 362 -2 362 -183 88 c-100 49 -453 223 -785 387 -331 165
-604 299 -607 299 -3 0 -5 -274 -5 -609 l0 -608 165 -362 c91 -199 165 -365
165 -369 0 -5 189 -422 420 -928 l419 -919 1145 -3 c909 -2 1145 0 1149 10 3
7 326 812 717 1788 l712 1775 64 740 c35 407 63 754 61 772 l-2 32 -529 -260
-529 -259 -497 0 -498 0 -508 251 c-280 138 -519 255 -531 260 -20 7 -23 5
-23 -14z"/>
</g>
</svg>
